<svg width="262" height="230" viewBox="0 0 262 230" fill="none" xmlns="http://www.w3.org/2000/svg">
<path d="M245.284 44.8021C254.646 58.2082 252.574 75.575 252.574 75.575C252.574 75.575 235.324 71.206 225.961 57.7999C216.599 44.3937 218.671 27.027 218.671 27.027C218.671 27.027 235.922 31.3959 245.284 44.8021Z" fill="#2F2E41"/>
<path d="M238.548 47.3619C239.643 63.5791 252.218 75.9652 252.218 75.9652C252.218 75.9652 263.017 62.0582 261.922 45.841C260.826 29.6238 248.251 17.2376 248.251 17.2376C248.251 17.2376 237.452 31.1447 238.548 47.3619Z" fill="#6C63FF"/>
<path d="M131.059 0.337702L258.168 63.0575C259.225 63.579 260.101 64.395 260.688 65.4032C261.274 66.4114 261.545 67.5671 261.465 68.7254L254.08 176.086C254.047 176.567 253.893 177.033 253.631 177.442C253.37 177.851 253.01 178.19 252.582 178.429C252.155 178.668 251.674 178.799 251.183 178.811C250.691 178.823 250.204 178.715 249.765 178.497L119.757 113.379L126.432 2.95488C126.463 2.43617 126.625 1.93323 126.904 1.49122C127.182 1.04922 127.568 0.681989 128.027 0.42252C128.485 0.16305 129.002 0.0194655 129.532 0.00466122C130.061 -0.0101431 130.586 0.104296 131.059 0.337702V0.337702Z" fill="#D0CDE1"/>
<path d="M132.522 2.52547L256.509 63.7048C257.54 64.2134 258.395 65.0093 258.967 65.9928C259.539 66.9763 259.803 68.1035 259.725 69.2334L252.521 173.957C252.489 174.426 252.339 174.881 252.084 175.28C251.829 175.679 251.477 176.009 251.06 176.242C250.644 176.475 250.174 176.603 249.695 176.615C249.215 176.627 248.74 176.522 248.312 176.309L121.498 112.79L128.008 5.07837C128.039 4.5724 128.197 4.08181 128.469 3.65066C128.74 3.21951 129.116 2.86131 129.564 2.60821C130.011 2.35511 130.516 2.21505 131.032 2.20061C131.548 2.18617 132.06 2.2978 132.522 2.52547V2.52547Z" fill="#3F3D56"/>
<path d="M137.955 10.6515L250.346 66.1087C251.28 66.5698 252.056 67.2913 252.574 68.1828C253.093 69.0742 253.332 70.0961 253.261 71.1203L246.731 166.049C246.702 166.475 246.566 166.887 246.335 167.248C246.104 167.61 245.785 167.909 245.407 168.121C245.029 168.332 244.604 168.448 244.17 168.458C243.735 168.469 243.304 168.374 242.916 168.181L127.963 110.604L133.864 12.9656C133.892 12.507 134.035 12.0623 134.281 11.6715C134.528 11.2806 134.869 10.9559 135.274 10.7265C135.68 10.4971 136.137 10.3701 136.605 10.357C137.073 10.3439 137.537 10.4451 137.955 10.6515V10.6515Z" fill="white"/>
<path d="M21.9849 166.207L149.257 229.114C150.441 229.698 151.749 230.002 153.074 230C154.4 229.998 155.707 229.691 156.89 229.104L251.042 182.196C252.146 181.113 251.992 179.507 251.639 178.301C251.467 177.718 251.234 177.153 250.943 176.618L238.113 169.995L130.24 117.172L123.795 113.814C122.089 112.927 120.189 112.46 118.258 112.452C116.328 112.444 114.424 112.897 112.711 113.77L21.9451 160.043C21.3677 160.336 20.884 160.78 20.5478 161.326C20.2115 161.872 20.0357 162.499 20.0399 163.137C20.044 163.775 20.2279 164.4 20.5711 164.941C20.9144 165.483 21.4037 165.921 21.9849 166.207V166.207Z" fill="#D0CDE1"/>
<path opacity="0.1" d="M21.985 166.207L149.257 229.114C150.441 229.698 151.749 230.002 153.074 230C154.4 229.998 155.707 229.691 156.89 229.104L251.042 182.196C252.146 181.113 251.992 179.507 251.639 178.301L157.768 226.188C156.623 226.772 155.353 227.082 154.062 227.093C152.771 227.104 151.496 226.815 150.34 226.25L20.0853 162.561C19.9628 163.289 20.0813 164.035 20.4232 164.691C20.7651 165.348 21.3125 165.879 21.985 166.207V166.207Z" fill="black"/>
<path opacity="0.1" d="M142.786 185.055L101.569 164.613C100.739 164.202 99.8206 163.992 98.8909 164.003C97.9612 164.013 97.0478 164.243 96.2277 164.673L72.3175 177.21C72.0412 177.355 71.8108 177.571 71.6513 177.836C71.4918 178.1 71.4094 178.403 71.4131 178.71C71.4168 179.018 71.5065 179.318 71.6723 179.579C71.838 179.84 72.0736 180.051 72.3533 180.189L114.378 200.988C115.076 201.334 115.85 201.505 116.631 201.487C117.412 201.47 118.177 201.264 118.858 200.887L142.864 187.614C143.098 187.484 143.291 187.295 143.423 187.065C143.556 186.836 143.621 186.575 143.613 186.311C143.605 186.048 143.524 185.792 143.378 185.57C143.232 185.349 143.028 185.171 142.786 185.055V185.055Z" fill="black"/>
<path opacity="0.1" d="M239.859 181.636L195.505 204.762C194.995 205.028 194.427 205.17 193.849 205.176C193.271 205.181 192.7 205.051 192.185 204.795L66.8673 142.597C66.5142 142.422 66.2178 142.154 66.0112 141.823C65.8047 141.491 65.6962 141.11 65.6979 140.722C65.6996 140.334 65.8115 139.953 66.0209 139.624C66.2303 139.294 66.5291 139.029 66.8837 138.856L110.196 117.817C110.849 117.5 111.568 117.336 112.296 117.339C113.024 117.341 113.742 117.51 114.392 117.831L239.839 179.864C240.006 179.947 240.146 180.072 240.244 180.228C240.343 180.383 240.396 180.562 240.398 180.745C240.4 180.928 240.351 181.107 240.256 181.265C240.161 181.422 240.023 181.551 239.859 181.636Z" fill="black"/>
<path d="M169.1 66.307L168.878 66.7436L209.656 86.7542L209.878 86.3176L169.1 66.307Z" fill="#6C63FF"/>
<path d="M169.097 72.1756L168.87 72.6098L209.659 93.0872L209.886 92.653L169.097 72.1756Z" fill="#6C63FF"/>
<path d="M176.563 83.3872L176.337 83.8219L199.706 95.5413L199.933 95.1066L176.563 83.3872Z" fill="#6C63FF"/>
<path d="M48.8876 107.822C48.8876 107.822 38.9436 103.569 34.273 108.062C29.6023 112.554 46.7782 111.075 48.8876 107.822Z" fill="#3F3D56"/>
<path d="M31.717 87.654C35.0587 82.1123 41.67 81.854 41.67 81.854C41.67 81.854 48.1124 81.0455 52.2452 89.4855C56.0972 97.3524 61.4135 104.948 53.101 106.79L51.5996 102.203L50.6697 107.131C49.4862 107.215 48.2989 107.234 47.1131 107.191C38.2111 106.909 29.7333 107.273 30.0063 104.138C30.3692 99.9704 28.5016 92.9862 31.717 87.654Z" fill="#CC4D17"/>
<path d="M27.041 188.116C27.041 188.116 31.2596 195.805 33.9716 195.805C36.6836 195.805 36.3823 200.832 35.7796 202.015C35.1769 203.198 33.6703 205.86 36.0809 209.705C36.923 211.048 36.7723 212.571 36.2198 213.985C34.6716 217.946 28.6491 216.746 28.8413 212.507C28.8434 212.461 28.8459 212.414 28.849 212.366C29.1503 207.635 26.7396 200.241 24.329 198.467C21.9183 196.692 19.809 191.96 19.809 191.96L27.041 188.116Z" fill="#FFB8B8"/>
<path d="M55.9689 186.341C55.9689 186.341 51.7502 194.03 49.0382 194.03C46.3262 194.03 46.6276 199.058 47.2302 200.241C47.8329 201.424 49.3396 204.086 46.9289 207.93C46.0869 209.273 46.2375 210.796 46.7901 212.21C48.3383 216.172 54.3607 214.972 54.1686 210.733C54.1665 210.686 54.1639 210.639 54.1609 210.592C53.8595 205.86 56.2702 198.467 58.6809 196.692C61.0915 194.918 63.2008 190.186 63.2008 190.186L55.9689 186.341Z" fill="#FFB8B8"/>
<path d="M52.6542 148.486L54.4622 152.331C54.4622 152.331 80.9795 160.907 78.5688 170.963C76.1582 181.018 64.4062 196.692 62.5982 196.101C60.7902 195.509 51.1476 193.735 50.8462 188.707C50.5449 183.679 57.7769 174.807 57.7769 174.807L47.8329 165.935L33.3628 165.639L21.0143 174.807C21.0143 174.807 33.9716 186.045 28.2463 190.482C22.521 194.918 14.0837 197.875 12.8784 196.101C11.673 194.326 -1.88694 168.005 0.222385 165.639C2.33171 163.273 23.7263 154.401 23.7263 154.401L29.4516 146.416L51.7502 145.233L52.6542 148.486Z" fill="#2F2E41"/>
<path d="M47.2302 99.6892C47.2302 99.6892 45.7236 109.449 48.7369 110.632C51.7502 111.815 42.7103 116.842 42.7103 116.842H37.5876L34.2729 110.04C34.2729 110.04 37.2863 104.717 35.4783 99.6892C33.6703 94.6616 47.2302 99.6892 47.2302 99.6892Z" fill="#FFB8B8"/>
<path opacity="0.1" d="M47.2302 99.6892C47.2302 99.6892 45.7236 109.449 48.7369 110.632C51.7502 111.815 42.7103 116.842 42.7103 116.842H37.5876L34.2729 110.04C34.2729 110.04 37.2863 104.717 35.4783 99.6892C33.6703 94.6616 47.2302 99.6892 47.2302 99.6892Z" fill="black"/>
<path d="M49.3396 107.97C49.3396 107.97 46.0249 111.519 45.4222 112.11C44.8196 112.702 42.1076 115.955 36.3823 111.223C30.657 106.491 30.0543 112.11 30.0543 112.11V147.599C30.0543 147.599 34.8756 145.529 38.7929 147.599C42.7103 149.669 50.8462 147.008 50.8462 147.008L52.3529 110.336L49.3396 107.97Z" fill="#D0CDE1"/>
<path d="M47.1262 107.97C47.1262 107.97 49.9422 106.787 52.3529 107.97C54.7635 109.153 63.2009 115.068 62.5982 117.729C61.9955 120.391 54.1609 139.023 59.5849 147.895C65.0089 156.767 65.9129 159.133 65.9129 159.133L52.6542 152.331C52.6542 152.331 42.4089 146.12 43.3129 142.276C44.2169 138.431 47.1262 107.97 47.1262 107.97Z" fill="#86BDC1"/>
<path d="M35.1734 107.97C35.1734 107.97 28.849 108.561 28.5476 109.153C28.2463 109.744 19.0557 112.258 19.6583 114.92C20.261 117.582 28.5476 141.389 24.9316 145.825C21.3156 150.261 15.289 156.471 17.3983 157.063C19.5076 157.654 23.1236 156.176 26.7396 157.063C30.3556 157.95 38.7929 150.557 37.8889 142.572C36.9849 134.587 37.8818 110.04 35.1734 107.97Z" fill="#86BDC1"/>
<path d="M50.2436 164.456V167.414C50.2436 167.414 51.7502 174.216 46.9289 173.92C42.1076 173.624 45.1209 165.639 45.1209 165.639L45.4223 162.978L50.2436 164.456Z" fill="#FFB8B8"/>
<path d="M36.6836 164.752C36.6836 164.752 39.9983 171.554 36.6836 172.146C33.3689 172.737 30.9583 168.301 30.9583 167.118C30.9583 165.935 36.6836 164.752 36.6836 164.752Z" fill="#FFB8B8"/>
<path d="M32.3143 96.8797C32.6471 96.8797 32.917 96.3501 32.917 95.6967C32.917 95.0434 32.6471 94.5138 32.3143 94.5138C31.9814 94.5138 31.7116 95.0434 31.7116 95.6967C31.7116 96.3501 31.9814 96.8797 32.3143 96.8797Z" fill="#FFB8B8"/>
<path d="M50.0929 96.8797C50.4257 96.8797 50.6956 96.3501 50.6956 95.6967C50.6956 95.0434 50.4257 94.5138 50.0929 94.5138C49.7601 94.5138 49.4902 95.0434 49.4902 95.6967C49.4902 96.3501 49.7601 96.8797 50.0929 96.8797Z" fill="#FFB8B8"/>
<path d="M27.041 111.815C27.041 111.815 19.5077 111.815 19.809 114.772C20.1103 117.729 30.0543 168.597 30.0543 168.597C30.0543 168.597 34.2729 164.752 37.8889 165.639L27.041 111.815Z" fill="#86BDC1"/>
<path d="M56.2702 112.702C56.2702 112.702 63.8035 114.18 63.8035 118.617C63.8035 123.053 52.9556 165.639 51.4489 165.639C49.9422 165.639 44.2169 164.752 44.2169 163.273C44.2169 161.795 56.2702 112.702 56.2702 112.702Z" fill="#86BDC1"/>
<path opacity="0.2" d="M54.6129 121.426L47.8329 147.449C47.8329 147.449 50.9969 124.679 54.6129 121.426Z" fill="black"/>
<path opacity="0.2" d="M28.2412 117.77L35.0983 151.793C35.0983 151.793 32.9067 119.732 28.2412 117.77Z" fill="black"/>
<path d="M41.2036 104.421C46.0298 104.421 49.9422 100.581 49.9422 95.8446C49.9422 91.1079 46.0298 87.2681 41.2036 87.2681C36.3774 87.2681 32.465 91.1079 32.465 95.8446C32.465 100.581 36.3774 104.421 41.2036 104.421Z" fill="#FFB8B8"/>
<path d="M33.1944 87.1196L39.7262 83.762L48.7461 85.1354L50.6122 93.2248L45.9668 93.0498L44.669 90.0777V93.0006L42.5254 92.9198L41.2812 88.188L40.5037 93.2248L32.8833 93.0725L33.1944 87.1196Z" fill="#CC4D17"/>
<path d="M131.141 37.3284L127.539 45.7359L157.941 61.3978L168.183 31.9807" fill="#F2F2F2"/>
<path d="M157.24 56.2396L170.67 25.2242L139.802 10.3164L126.838 40.5777L157.24 56.2396Z" fill="#6C63FF"/>
<path d="M139.072 22.1768L138.846 22.6115L162.216 34.3309L162.442 33.8962L139.072 22.1768Z" fill="white"/>
<path d="M137.32 26.3033L137.094 26.738L160.464 38.4575L160.69 38.0228L137.32 26.3033Z" fill="white"/>
</svg>
